<svg xmlns="http://www.w3.org/2000/svg" xmlns:xlink="http://www.w3.org/1999/xlink" width="1144" height="863" viewBox="0 0 1143.14 862.91"><style><![CDATA[.B{opacity:.1}.C{opacity:.2}.D{fill:#a942dd}.E{fill:#65617d}.F{fill:#fff}.G{fill:#e7effd}.H{fill:#5a5773}.I{fill:#fbbebe}.J{fill:#ffcdd3}]]></style><defs><linearGradient id="A" x1="551.46" y1="688.44" x2="551.46" y2="150.11" gradientUnits="userSpaceOnUse"><stop offset="0" stop-color="gray" stop-opacity=".25"/><stop offset=".54" stop-color="gray" stop-opacity=".12"/><stop offset="1" stop-color="gray" stop-opacity=".1"/></linearGradient><linearGradient id="B" x1="1059.46" y1="856.62" x2="1059.46" y2="468.94" xlink:href="#A"/><linearGradient id="C" x1="220.866" y1="870.04" x2="236.248" y2="485.501" xlink:href="#A"/><path id="D" d="M1064.18 653.4s11.57-1.1 12.6-.27 7.6 5.1 11.47 2.4 1.3-12 1.3-12.4-.37-13.6-.37-13.6l-6.94-9.35-8.7-16.38-17.78-1.76.46 26-.1 13.33z"/><path id="E" d="M1032.15 508.25s-.74.56-.93 4.26-2.78 12-2.78 12 9.63-6.66 14.44-5.92z"/></defs><g class="D"><ellipse cx="1023.75" cy="834.07" rx="100.11" ry="24.73" class="B"/><ellipse cx="140.04" cy="838.19" rx="100.11" ry="24.73" class="B"/><path d="M684.74 232.87s-14.07-5.7-58.8 14.82-50.36 17.9-61.92 14.77-18-3.88-30.46-21c0 0-8.76-47.48-17.23-54.84s-44.5 4.2-44.5 4.2-43.2 9.9-51.42-47.8c0 0 5.84-43.5-2.1-56.86 0 0 16 6.93 42.54-4.25s47.7 12 47.7 12 6.68 17.3 6 27.6 3.53 14.18 16.17 9.2c0 0 6.2-8.83-2.6-23.42s-15.06-25.47-12.6-36.8 9.5-27 32.16-34.9 53.44-9.38 68.22-15.53S634.23 9.9 634.23 9.9s-9.1 9.14 12.34 47.75 7.77 55.38 7.77 55.38-11.4 27.16-61.7 25c0 0-48.47 1.77-22 22.33 0 0 16.93-3.45 42.23-11.5s43.57 25.15 48.1 48.25 23.77 35.75 23.77 35.75z"/></g><g fill="#444053"><path d="M619.57 39.2l.27-.07c1.94 7.37-19.73 37-38.24 60.53l-.22-.17c26.13-33.2 39.7-54.62 38.2-60.3z"/><path d="M581.77 99l.1.3c-14.8 18.8-33.4 41.25-48.28 57.87-1.42 1.6-2.83 3.25-4.2 4.95l-.42-.35a155.91 155.91 0 0 1 4.2-5C548.07 140.2 567 117.8 581.77 99z"/><path d="M529.35 161.34l.3.5c-27.1 33.83-28.9 86.36-29 86.82l-5.72-6.6c.12-.46 7.14-46.66 34.43-80.72z"/></g><g stroke-miterlimit="10" stroke="#444053" fill="none"><path d="M653.3 214.52s-32-16.6-56.85-10.65-81-21.06-81-21.06-23.8-9.68-28.6-20.7c0 0-16.33-17.26-17.26-26.2s-16.83-31.4-27.2-32.27"/><path d="M648.7 230.5s-16.12-10.84-14.22-23.47M624 244.52s-23-8.36-25.32-41.1M586.87 253s-22-18.25-14.7-50.13m-29.92 41.2s-14.65-30.7-1.62-50.7m113.07.9s-16.65 5.28-13.08 14m-7.05-44.2s-22.27 7.07-22.8 38.57m-8.2-45.85s-20.26 25-18.77 47.75m-16.75-37.95s-20.13 19.24-17.56 29.95m5.4-36.74s-18.88 3.4-21.52-2.8m-3-19.98s9.54 12.63 12 9.8m82.55-17.8s-47.58 3.43-58.36-10.9m-46.2-44.76s22.33 47.93 38.54 54m-15.1-76.82s13.72 44.1 30.7 57.85"/><g stroke-width=".75"><path d="M644.96 92.65s-36.2 15.53-57.92-.18m-11-51.33s8.27 32.4 19.4 40.24"/><path d="M639.5 56.35s-20.33 7.7-27.93 1.8"/></g><path d="M512.96 147.6s0 28.25-7.7 30.26m-55.16 6.34s30.54 2.62 44.63-13.14m10.35-56.82s-7.4 28.65-27.78 36.37m-45.53 3.42s21.62 7.52 40.2-11.62m9.07-52.8s-2 24.33-15.27 35.72m-33.2-8.37s17.94.13 22.14-5.72"/></g><path d="M591.97 137.46c-71.4 11.9-142.9 5.5-211.75-3.38s-137.52-20.22-209.07-18c-46 1.44-97.17 10.48-129 38.22-30.62 26.7-35 63.18-34.7 96.18C7.66 275.3 10 301 26.8 320.97c11.67 13.85 29.5 23.9 43 36.72 47 44.58 33.67 113.64 3.9 172.12-14 27.44-31.1 54.37-40.5 82.5s-10.32 58.43 7.36 81.72c17.54 23.1 51.1 36.4 86 43.52 70.9 14.47 149.57 7 225.67-3.4 168.44-23.1 335-60.5 501.08-97.8 61.47-13.8 123.2-27.68 182.35-48 32.84-11.26 66.25-25.43 87.28-47.84 26.7-28.45 26.93-67.72.56-91.54-44.24-40-143.2-32.48-177.6-78-18.94-25-11.23-58.62 3.24-88.17 31-63.4 91.75-125.65 83-189.36-6-43.76-48.38-80.4-104.68-90.53-59-10.6-134.4 7.1-167.78 50.62-34.36 44.92-104.68 73.42-167.72 83.92z" class="B D"/><rect x="76.29" y="150.11" width="950.33" height="538.33" rx="12.49" fill="url(#A)"/><g class="F"><rect x="77.8" y="157.68" width="947.42" height="528.97" rx="12.49"/><rect x="77.8" y="157.68" width="947.42" height="528.97" rx="12.49"/></g><g class="H"><rect x="77.8" y="157.68" width="947.42" height="528.97" rx="12.49" opacity=".04"/><path d="M1020.4 151.6H82.57a4.81 4.81 0 0 0-4.81 4.81v20.34h947.42v-20.3a4.81 4.81 0 0 0-4.77-4.85z"/></g><g class="F"><circle cx="96.72" cy="164.18" r="6.5"/><circle cx="114.22" cy="164.18" r="6.5"/><circle cx="131.72" cy="164.18" r="6.5"/><rect x="141.22" y="293.86" width="790" height="392.78" rx="10.19"/></g><rect x="107.72" y="203.45" width="227.24" height="23.85" rx="3.86" class="C H"/><g class="D"><rect x="536.22" y="339.45" width="227.24" height="23.85" rx="3.86" class="C"/><rect x="536.22" y="406.23" width="354.83" height="23.85" rx="3.86" class="C"/><rect x="536.22" y="445.23" width="354.83" height="23.85" rx="3.86" class="C"/><rect x="536.22" y="484.23" width="354.83" height="23.85" rx="3.86" class="C"/><rect x="536.22" y="523.23" width="354.83" height="23.85" rx="3.86" class="C"/><rect x="184.05" y="566.23" width="707" height="23.85" rx="3.86" class="C"/><rect x="184.05" y="605.23" width="707" height="23.85" rx="3.86" class="C"/><rect x="184.05" y="644.23" width="707" height="23.85" rx="3.86" class="C"/><path d="M729.3 660s5.93 7.75-2.74 19.46-15.8 21.6-12.92 28.9c0 0 13.07-21.74 23.72-22S741 673.07 729.3 660z"/></g><path d="M729.3 660a9.6 9.6 0 0 1 1.21 2.43c10.4 12.2 15.92 23.6 5.94 23.87-9.3.27-20.46 16.9-23.13 21.1a7.72 7.72 0 0 0 .32 1s13.07-21.74 23.72-22 3.65-13.32-8.06-26.4z" class="B"/><g fill="#ffd037"><path d="M740.32 669.88c0 2.73-.3 4.94-.68 4.94s-.68-2.2-.68-4.94.38-1.44.76-1.44.6-1.3.6 1.44z"/><path d="M744.1 673.14c-2.4 1.3-4.5 2.1-4.67 1.76s1.62-1.66 4-3 1.45-.36 1.63 0 1.43-.07-.96 1.24z"/></g><path d="M697.98 660s-5.93 7.75 2.73 19.46 15.82 21.6 12.93 28.9c0 0-13.08-21.74-23.72-22s-3.65-13.28 8.06-26.35z" class="D"/><path d="M697.98 660a9.39 9.39 0 0 0-1.22 2.43c-10.38 12.2-15.9 23.6-5.93 23.87 9.3.27 20.45 16.9 23.12 21.1a7.68 7.68 0 0 1-.31 1s-13.08-21.74-23.72-22-3.65-13.32 8.06-26.4z" class="B"/><g fill="#ffd037"><path d="M686.95 669.88c0 2.73.3 4.94.7 4.94s.68-2.2.68-4.94-.38-1.42-.75-1.42-.62-1.3-.62 1.42z"/><path d="M683.17 673.14c2.4 1.3 4.5 2.1 4.67 1.76s-1.62-1.66-4-3-1.45-.36-1.63 0-1.44-.07.96 1.24z"/></g><ellipse cx="713.64" cy="758.15" rx="62" ry="9.51" class="B D"/><path d="M745.57 697.9l-.3 2.42-.4 3.42-.18 1.43-.4 3.42-.18 1.43-.42 3.4-4.74 38.9c-.43 3.47-6.1 6.18-13 6.18H701.3c-6.85 0-12.5-2.7-12.93-6.18l-4.76-38.87-.4-3.4-.18-1.43-.42-3.42-.17-1.43-.72-5.84c-.23-2 2.84-3.62 6.7-3.62h50.42c3.87-.03 6.94 1.62 6.72 3.6z" class="E"/><path d="M745.25 700.32l-.4 3.42h-62.4l-.42-3.42h63.23zm-.6 4.84l-.4 3.42h-61.22l-.42-3.42h62.05zm-.58 4.84l-.42 3.42h-60.03l-.4-3.42h60.86z" fill="#9d9cb5"/><rect x="184.05" y="326.22" width="302" height="221.54" rx="8.5" class="C D"/><path d="M1125.05 572.6c.38-1-2.44-6.72-2.44-7s-2.9-3.45-2.9-5.22-3.85-5.6-3.85-5.6-5.17-2.14-5.73-6.8-6.2-4.75-6.2-4.75v-1.07a14.72 14.72 0 0 0-.69-5.45 5.49 5.49 0 0 0-3.19-2.71s-.57-3.64-1.7-4.76a5.35 5.35 0 0 1-1.32-5c.57-1.76-.75-6.24-3.47-6.9l-5.83-1.68-.75.13-.37-.13a15.59 15.59 0 0 1-2 .25 2.47 2.47 0 0 1-1.59-.52c-.94-1-8.55-3-10-3s-5.45-1.87-5.45-1.87l-4-3.08c-1.18-.94-3.23-4.35-3.54-4.87v-.07a17.25 17.25 0 0 1-.85-2.45 22.06 22.06 0 0 0 3.49-4.81c.1-.18.2-.36.28-.55a2.1 2.1 0 0 0 .61-.09l.25-.1a4.06 4.06 0 0 0 2-2.38 6.32 6.32 0 0 0 .18-.62v-.2l.1-.42a2 2 0 0 1 0-.24l.06-.42v-.24c0-.18 0-.35.07-.53a18.7 18.7 0 0 1 .29-2c.56-2.53 2.1-4.67 3.16-7a21.48 21.48 0 0 0 .43-1c.13-.33.26-.75.37-1.13l.1-.35c.07-.28.13-.56.2-.84s0-.25.07-.38q.1-.57.15-1.17a14.46 14.46 0 0 0-1-6.55c-.7-1.75-1.75-3.33-2.46-5.08-1.08-2.65-1.37-5.66-2.68-8.2a9.75 9.75 0 0 0-11.7-4.76c-2 .76-3.82 2.23-5.9 2.9-2.78.9-5.74.22-8.62-.17s-6-.44-8.36 1.44c-2.66 2.16-3.38 6.22-5.88 8.6-1 1-2.35 1.63-3.46 2.55a5.65 5.65 0 0 0-1.74 2.38l-.06.2a1.83 1.83 0 0 0-.06.25 2.33 2.33 0 0 0-.05.28 1.11 1.11 0 0 0 0 .19 2.09 2.09 0 0 0 0 .5 3.81 3.81 0 0 0 .07.47v.13c0 .13.07.26.12.4s0 .05 0 .07a5.74 5.74 0 0 0 .17.43l.1.2c0 .06 0 .12.08.17a12.44 12.44 0 0 1 .87 2.17 2.41 2.41 0 0 1-.09 1.43 4.22 4.22 0 0 1-1 1.37 19.35 19.35 0 0 0-4.24 6.79q-.17.44-.3.87h.13a5.68 5.68 0 0 0 .82.17 4 4 0 0 0 .47 0 7.32 7.32 0 0 0 1.92-.14l.48-.12a10.87 10.87 0 0 0 1.9-.69v.9a22.18 22.18 0 0 0 12.33 19.84c0 .2.05.4.08.6l.06.5-.25-.24s-1.7-.84-3.3 1.58a10.62 10.62 0 0 1-4.6 3.55s-17.1 2.7-17.76 4.94l-8 .47s-2.82.37-3.1 6.25-1.78 6.43-1.78 6.43-3.3 5.8-3 8.77a4.89 4.89 0 0 1-2.54 4.48l-.37 5.32s-3.1-.47-4 3.17a12.65 12.65 0 0 1-2.34 5.31s-5.17 4.3-5.45 7.93l-3.2 2s-7.42-1.68-9.1-4.66c0 0-.2-.2-.52-.5v-.07c-1.1-1-3.46-3.24-3.1-2.73a2.25 2.25 0 0 1 .15 1.5l-2.03-2.25s-12-11.24-19-12.13c-.1-.18-.55-2-1.75-.85a9.8 9.8 0 0 0-.07 14.37l11.24 10.5.3.2 2.4 3.1c-.4 1-.75 1.92-1 2.78v.1l-.18.54a1.21 1.21 0 0 0-.05.18c-.06.18-.1.35-.16.52l-.1.3v.18c-.27.94-.44 1.66-.52 2.06l-.63-.2.6.27v.3l.58.25c3.3 1.43 19.7 8.64 20.55 9.73s7.14 4.76 12.78 1.77 6.85-7.55 6.85-7.55 5.45-7.56 5.64-8.68 4.4-2.42 4.4-2.42.38 12.5-1.78 17.07-6.2 24.8-6.2 24.8a2.86 2.86 0 0 1 .8 0l-.24 1.17a2.72 2.72 0 0 1 1 0c-.3 2.3-2 13-2 13s-.56 4.85-1.5 6.53-1 10.45-1 10.45l-1.5 6.34s.2.44.57 1.1a16.23 16.23 0 0 0 4.32 5.59 11.06 11.06 0 0 1-.76 2.9 10.2 10.2 0 0 0-.75 4.48s-1.6 7.18-1.4 9.23-1 7.1-1 7.1l-1.7 16.23s-1.12 14.08-.56 17.9a34.37 34.37 0 0 1-.38 9s1.13 11.1.85 12.3-1.7 6.44-.85 9.33.38 10.82.38 10.82.56 10.45 1.22 13.8a23.64 23.64 0 0 1-.19 7.65s-.66 7.18-.94 7.18-2.72 4.94 2.25 9.8 1.9 4.1 1.9 4.1-4-2-3.48 2.06c.44 3.8 1.06 2.82 1.12 2.7l-.94 3.07.66.1-.54.65a14.05 14.05 0 0 1-1.9 2 4.07 4.07 0 0 0-1.22 2.7s-6.95 7.56-13.43 11.38c-3.4 2-6.35 3.7-7.63 5.13-1.16 1.26-1 2.28 1.43 3.08 5.07 1.68 14 2.52 20.38.37a23.84 23.84 0 0 0 10-6.43s4-2.06 8-1.3 11.84-4.38 11.84-4.38l-.15-1.32-.4-3.82a3 3 0 0 1-.66-2.32 12 12 0 0 0-.33-3.36l-.2-1.08.72-.14s-.93-4.75.76-5.7 1.2-13.15 1.2-13.15-2.15-2.8-3.28-3.26-.1-6.26.1-7 1.7-15.2 1.7-15.2-.57-4.56.18-6.52-.94-9.52-.94-9.52a1.74 1.74 0 0 1 .47-2.05c1-1.12.66-11.1.66-11.1l-.1-6.35c0-1.35 1.12-6.06 2.16-7.64s.37-6.53.37-6.53l.06-.37c0-.14 0-.32.08-.53l.08-.5a72.67 72.67 0 0 1 1.84-8.1c1.22-3.9 2.63-10.8 2.63-10.8l8.83-23.05s4 7.46 4 14.37c0 0 1 8.3.76 10.54s.65 12.77.65 12.77l1.22 15.76c0 .65 1.5 12.3 2.45 14.1s-.94 7.18-1.5 7.74.2 14.27.2 14.27l-1.7 13.06c-.28 2.24-1.4 10.82-.47 14.18s.56 3.82.56 3.82 3.4 3.46 1.4 3.74a5.17 5.17 0 0 0-3.76 6.8 89.61 89.61 0 0 0 4.14 10l1.56-.33v1.1l.1 5.56s.66 5.3.28 6.53c-.27.88-.65 5.06-.83 7.25l-.1 1.33s0 4.94 10.43 3.45 12.3-5.6 12.3-5.6l.08-.5c.15-.94.5-2.94.77-4.06.37-1.5-3-8.2-3-8.2s-.56-4.57-1.5-5.6a5 5 0 0 1-.76-2 23.24 23.24 0 0 1-.22-1.15 6.78 6.78 0 0 1 .7.12s-.57-3.26 1.6-4.3 1.6-3.17 1.3-4.1.84-6.16.84-6.16a3 3 0 0 1 .75-3c1.32-1.3 2.35-10.45 2.35-10.45l.2-35.26s.66-6.25-.1-8.77-1.5-7.37-.47-8.68.1-7.36.1-7.36 0-12.78 1.4-16 .94-23.23.94-23.23l.37-13.15s3.07-2.9 2.35-18c3.27-.2 7-.33 7.52.13 1 .84 7.7 5.13 11.65 2.42a52.29 52.29 0 0 0 4.69-3.63l-1.66-28 1.66 2.6c0-3.9 11.1-16.6 11.1-16.6s10.33-13.34 12.58-14.92 6.67-10 6.67-10a40.59 40.59 0 0 1 2.26-4.66c1.04-1.6-2.34-6.07-1.97-7.1zm-24.23 9.8c-2.82.28-8.74 6.72-8.83 8.12a5.76 5.76 0 0 1-1.25 2.5c0-.56-.1-1.13-.14-1.7-.66-8.25-1.38-18.3-1-19.26.56-1.68.37-9.24.37-9.24l.1-.15c1.9 5.86 7.77 12.76 7.77 12.76s1 3 2.26 3.07.7 3.9.7 3.9z" fill="url(#B)"/><path d="M950.22 580.27s3.43-18 14.44-18l8.06 16.57-5.37 3.7s-11.67.32-17.13-2.27z" class="E"/><path d="M972.72 578.8l-5.37 3.7s-8.2.26-14.08-1.18a16.24 16.24 0 0 1-3.05-1l.06-.3v-.06a40 40 0 0 1 2.08-6.6 38.43 38.43 0 0 1 1.14-2.47c1.6-3.1 3.88-6.15 7-7.65a9.49 9.49 0 0 1 3.67-1h.5l.18.37 2.72 5.6z" class="B"/><use xlink:href="#D" class="E"/><use xlink:href="#D" class="B"/><path d="M962.35 561.76s-.93 11.3-8 11.48c0 0-2-1.2-4.68-3.2-6.18-4.63-16-13.52-13.28-21.8 3.9-11.85 22.77 10 22.77 10l1.46 1.63z" class="I"/><path d="M962.35 561.76s-.93 11.3-8 11.48c0 0-2-1.2-4.68-3.2l-.6-.77a9.21 9.21 0 0 0 3.86 1 5.21 5.21 0 0 0 5-3.17 40 40 0 0 0 2-4.49 14 14 0 0 0 .71-2.77z" class="B"/><path d="M959.3 582.22l-1.58-2-5.33-6.86-2.7-3.5a9.13 9.13 0 0 0 3.85 1 5.18 5.18 0 0 0 5-3.17 39.18 39.18 0 0 0 1.95-4.48c.88-2.5.86-3.78.55-4.22s2 1.68 3.06 2.72l.5.48.2.38 2.8 5.4a1.45 1.45 0 0 1 0 .23c.2 1.7 1.1 12.5-8.28 14.03z" class="G"/><path d="M1014.75 820.46s-7.78 5.1-11.67 4.35a14 14 0 0 0-7.87 1.3 23.36 23.36 0 0 1-9.81 6.39c-6.3 2.13-15.1 1.3-20.1-.37-2.36-.8-2.55-1.8-1.4-3.06s4.16-3.1 7.52-5.1c6.4-3.8 13.24-11.3 13.24-11.3a4 4 0 0 1 1.2-2.69 13.8 13.8 0 0 0 1.87-2c1-1.17 1.93-2.4 1.93-2.4l22.9.86s.4 1.65.7 3.34a12.08 12.08 0 0 1 .32 3.33 3 3 0 0 0 .65 2.31l.4 3.78zm47.82 6.42c-.27 1.1-.6 3.1-.76 4 0 .3-.07.5-.07.5s-1.85 4.07-12.13 5.55-10.27-3.42-10.27-3.42l.1-1.33.82-7.2c.37-1.2-.27-6.48-.27-6.48l-.2-9.35 17-1.76a32.8 32.8 0 0 0 .55 3.79 4.87 4.87 0 0 0 .75 2c.92 1 1.48 5.55 1.48 5.55s3.4 6.65 3 8.13z" class="E"/><path d="M1012.57 806.46l.7 3.34c-2.47.45-13.27 2.32-16 1-3.06-1.48-9.63-2.3-9.63-2.3l.1-.38c1-1.17 1.93-2.4 1.93-2.4zm44.83 4.77c-4.3-.73-13.78 1-17.5 1.8l-.08-3.83 17-1.76a32.8 32.8 0 0 0 .58 3.79z" class="B"/><path d="M1067.04 670.9l-.36 13s.46 19.9-.93 23-1.4 15.83-1.4 15.83.93 6-.1 7.3-.28 6.1.46 8.6.1 8.7.1 8.7l-.18 35s-1 9.07-2.32 10.37a3.05 3.05 0 0 0-.74 3s-1.1 5.18-.83 6.1.83 3.05-1.3 4.07-1.58 4.26-1.58 4.26c-5.1-1.2-19.53 2-19.53 2a88.58 88.58 0 0 1-4.08-9.91 5.13 5.13 0 0 1 3.71-6.76c1.94-.27-1.4-3.7-1.4-3.7s.37-.46-.56-3.8.2-11.85.47-14.07l1.66-13s-.74-13.6-.18-14.16 2.4-5.93 1.48-7.68-2.4-13.33-2.4-14-1.2-15.65-1.2-15.65-1.1-10.46-.83-12.68-.75-10.46-.75-10.46c0-6.85-4-14.26-4-14.26l-.1.27-8.6 22.76s-1.4 6.85-2.6 10.74a70.55 70.55 0 0 0-1.81 8l-.08.5-.08.52-.06.37s.64 4.9-.38 6.48a23.11 23.11 0 0 0-2.12 7.59l.1 6.3s.37 9.9-.65 11a1.73 1.73 0 0 0-.46 2s1.66 7.5.92 9.44-.18 6.48-.18 6.48l-1.67 15.1c-.2.74-1.2 6.48-.1 6.94s3.24 3.24 3.24 3.24.46 12.13-1.2 13.05-.75 5.65-.75 5.65-13.42 2.6-16.47 1.1-9.63-2.3-9.63-2.3l.92-3c-.06.1-.67 1.1-1.1-2.7-.47-4 3.42-2 3.42-2s3.06.74-1.85-4.07-2.5-9.72-2.22-9.72.92-7.13.92-7.13a23.57 23.57 0 0 0 .19-7.59c-.65-3.33-1.2-13.7-1.2-13.7s.46-7.87-.38-10.74.56-8 .84-9.26-.84-12.22-.84-12.22a34.27 34.27 0 0 0 .38-9c-.56-3.8.55-17.78.55-17.78l1.67-16.1s1.2-5 1-7 1.4-9.16 1.4-9.16a10.16 10.16 0 0 1 .74-4.45c.93-1.85 1.3-8 1.3-8l8.9-20.36 4.35-18 58.78-.56.57 4.4 1.42 12.2 1.62 16.38c1.8 19.7-1.92 23.22-1.92 23.22z" fill="#3f3d56"/><path d="M1061.57 508.8l-13.7 14.65s-17.58-7-15.73-9.45c.7-.93.6-3.87.2-7.1-.65-5.13-2-11-2-11s30.73-5 28.13.18a8.52 8.52 0 0 0-.19 6.15 23.29 23.29 0 0 0 3.29 6.58z" class="I"/><path d="M1058.43 496.03c-.94 1.9-1.4 2.08-.8 4.12-4 4.3-9.13 9-15.5 9a21.92 21.92 0 0 1-9.8-2.3c-.65-5.13-2-11-2-11s30.7-5 28.1.18z" class="B"/><path d="M1064.18 486.6a22 22 0 0 1-44.07 0v-.32a22 22 0 0 1 44.06.32z" class="I"/><path d="M1067.37 631.94l-23.63.28-3.7.06c-12.88.2-25.57-2.3-30.67-1.84-10.83 1 3.9-10 3.9-10a90.83 90.83 0 0 0 24.67 2.49l3.12-.16c9.84-.56 19.73-1.48 24.9-3l1.42 12.17z" class="B"/><path d="M1067.37 631.38l-23.63.28-3.7.06c-12.88.2-25.57-2.3-30.67-1.83-10.83 1 3.9-10 3.9-10a90.37 90.37 0 0 0 24.67 2.49l3.12-.16c9.84-.55 19.73-1.48 24.9-3l1.42 12.16z" fill="#5f5d7e"/><path d="M1036.22 514.92l-17 8-13.15 101.64s7.78-3.52 12.22-1.3 18.14.2 18.14.2 10-.56 11.48.56 18.9-4.63 18.9-4.63 3.15-7 .74-8.15.74-12 .74-12l-1.48-73.32-3-9.44-8-4.82-8.14 6.48-3.9.56z" class="B"/><path d="M1036.22 513.8l-17 8-13.18 101.65s7.78-3.52 12.22-1.3 18.14.2 18.14.2 10-.56 11.48.55 18.9-4.62 18.9-4.62 3.15-7 .74-8.15.74-12 .74-12l-1.48-73.32-3-9.44-8-4.82-8.14 6.48-3.9.56z" class="G"/><path d="M1035.94 518.53s4.9 5.83 4.82 7l-.28 4.08-3.7 7.5s-2 9.35-2 11.3-3.24 18.8-3.24 18.8l-3.97 25.95-4.9 34 5 8.6 5.93-5 7.87-60.54 1.66-11.94 1.76-23.7a75.45 75.45 0 0 0-1-8.05s1.2-5.56 6.2-6.85-.38-.28-.38-.28l-2.86-2.3-2.5 1s-6.93-2.14-8.4.45z" class="B"/><path d="M1035.4 517.97s4.9 5.83 4.8 7l-.28 4.07-3.7 7.5s-2 9.35-2 11.3-3.24 18.8-3.24 18.8l-3.88 25.92-4.9 34 5 8.6 5.92-5 7.87-60.54 1.67-11.94 1.76-23.7a75.73 75.73 0 0 0-1-8.06s1.2-5.55 6.2-6.85-.37-.27-.37-.27l-2.87-2.32-2.5 1s-7-2.1-8.48.5z" class="D"/><use xlink:href="#E" class="B"/><use xlink:href="#E" y="-1.11" class="G"/><path d="M1058.44 505.3l-15.18 13.33s12.77 7.6 14.44 9.44 3.33-18.14 3.33-18.14z" class="B"/><path d="M1059 504.18l-15.18 13.33s12.78 7.6 14.44 9.44 3.33-18.14 3.33-18.14z" class="G"/><path d="M1032.7 508.25s-1.66-.83-3.24 1.58a10.45 10.45 0 0 1-4.53 3.51s-16.85 2.7-17.5 4.9l-7.87.46s-2.78.37-3 6.2-1.76 6.38-1.76 6.38-3.24 5.74-3 8.7a4.87 4.87 0 0 1-2.5 4.45l11.57 30.08s.37 12.4-1.76 16.94-6.1 24.63-6.1 24.63 1.67-.37 1.57.74-2 13.24-2 13.24-.56 4.8-1.48 6.48-1 10.36-1 10.36l-1.48 6.3s3.5 7.87 8.88 6.76 15.08-22.13 15.08-22.13l6.2-22.68 4.82-22.4 1.4-15.18 2.22-33.6 3.24-22.2s3.56-11.94 2.26-13.52z" class="B"/><path d="M1032.15 507.14s-1.67-.83-3.24 1.58a10.51 10.51 0 0 1-4.54 3.51s-16.85 2.7-17.5 4.9l-7.86.46s-2.78.37-3.06 6.2-1.76 6.4-1.76 6.4-3.24 5.74-3 8.7a4.85 4.85 0 0 1-2.5 4.45l11.6 30.12s.37 12.4-1.76 16.94-6.1 24.63-6.1 24.63 1.67-.37 1.58.74-2 13.23-2 13.23-.55 4.82-1.48 6.48-1 10.37-1 10.37l-1.48 6.3s3.52 7.87 8.9 6.75 15.1-22.12 15.1-22.12l6.2-22.68 4.8-22.4 1.33-15.24 2.22-33.6 3.24-22.2s3.6-11.92 2.32-13.5z" class="E"/><path d="M972.72 578.8l-5.37 3.7s-8.2.26-14.08-1.18l-3-1.33-.6-.26.62.2a12.26 12.26 0 0 0 7.41.26c7.6-2.56 6.76-15.1 6.46-17.94 0-.3-.05-.47-.06-.54v.07a5 5 0 0 0 .35.49l.34.36 2.78 5.34a1.45 1.45 0 0 1 0 .23z" class="B"/><path d="M991.32 542.6l-2.6.74-.37 5.27s-3-.46-3.9 3.15a12.71 12.71 0 0 1-2.31 5.28s-5.1 4.26-5.37 7.87l-3.15 1.94s-7.3-1.67-9-4.63c0 0 3.34 23.88-14.44 18 0 0 19.9 8.7 20.83 9.9s7 4.72 12.6 1.76 6.76-7.5 6.76-7.5 5.37-7.5 5.55-8.6 4.35-2.4 4.35-2.4l8-19.25z" class="E"/><path d="M1056.3 516.4l2.68-12.22s1.2 4 2.4 4.9l4 3s4 1.85 5.37 1.85 8.9 2 9.8 3 4.63.28 4.63.28 3.05 1 5.74 1.67 4 5.1 3.42 6.85a5.35 5.35 0 0 0 1.3 5c1.1 1.1 1.67 4.72 1.67 4.72a5.42 5.42 0 0 1 3.14 2.68c.93 2 .65 6.48.65 6.48l-13.8 19.44s.18 7.5-.37 9.17 1.94 30 1.94 30l2.87 48.7a50.51 50.51 0 0 1-4.63 3.61c-.83.37-1.66-17.22-1.66-17.86s-21.4-32-21.4-32-2.87-4.63-2.87-5.65-2.68-10.37-2.68-10.37l-4.07-18z" class="B"/><path d="M1102.26 543.57v1.06l-13.78 19.42s.2 7.5-.37 9.17c-.32 1 .38 10.93 1 19.1l.9 10.88 2.87 48.65a50.51 50.51 0 0 1-4.63 3.61c-.83.37-1.66-17.22-1.66-17.87s-21.4-32-21.4-32-2.87-4.63-2.87-5.65-2.68-10.37-2.68-10.37l-4.07-18 1.85-55.17 1.57-12.22s2.32 4 3.52 4.9l4 3.06s4 1.85 5.37 1.85 8.9 2 9.8 3 4.63.28 4.63.28 3.06 1 5.74 1.67 4 5.1 3.42 6.85a5.36 5.36 0 0 0 1.3 5c1.1 1.1 1.67 4.72 1.67 4.72a5.42 5.42 0 0 1 3.14 2.68 15 15 0 0 1 .66 5.37z" class="E"/><path d="M989.1 790.22c.46 0 19.9.74 19.53 3.9s-19.53-3.9-19.53-3.9zm4.35 5.24s13.05 2.13 9.63 4.07-9.63-4.07-9.63-4.07zm48.5-7.26s21.66 1.85 18.42 4.25-10.92 2.78-11.3 2.87-7.13-7.12-7.13-7.12zm-2.6 9.52s12 2 12.4 4.35-12.4-4.35-12.4-4.35zm6.68-55.72s11 2.6 11.67 4.35zm-42.46 7.95s-5.74 1.67-.18 5 .18-5 .18-5zM1029 661c.65 0 10.74-3.33 14.26-1.85a23.45 23.45 0 0 0 7.86 1.48zm1.3 10.54l-.1.92-8.63 22.6s-1.4 6.85-2.6 10.74a70.55 70.55 0 0 0-1.81 8l7.64-47.37z" class="B"/><path d="M1043.74 631.66l-3.7.06-2.1-9.33 3.12-.17z" fill="#3f3d56"/><path d="M1087.4 620.36l-2.3 1.9-7.7 6.33s-20.82 11.1-26.56.56c-5.06-9.3 18.55-15.94 24.24-17.4l1.2-.3z" class="I"/><path d="M998.45 529.36s4.07 1.85 5 4.44-5-4.44-5-4.44zm-12.6 27.77s-5.92 7.22-3.52 10 3.52-10 3.52-10zm105.9-23.67s-5.55.56-5.74 5.37zm-51.46 75.88c.56-.56 13.33-19.44 16.3-17.77zm23.9-122.74a22 22 0 0 1-2.61 10.4h-.16c-1.4-.3-2.13-1.92-3.2-2.94a4.33 4.33 0 0 0-5-.7 5.08 5.08 0 0 0-2.46 4.75c-.7-3-.48-6.12-1.17-9.1s-2.76-6-5.6-6c-1.22 0-2.65.45-3.53-.47-.53-.55-.64-1.42-1-2.1-2-3.3-8.2-1.63-10.72.06s-5.45 4.37-8.58 5.8a22 22 0 0 1 44.06.32z" class="B"/><path d="M1039.42 479.84c.4.67.5 1.54 1 2.1.88.9 2.3.44 3.53.46 2.84.05 4.92 3.06 5.6 6s.47 6.12 1.18 9.08a5 5 0 0 1 2.45-4.74 4.35 4.35 0 0 1 5 .69c1.06 1 1.8 2.65 3.2 2.94s2.74-1.05 3.24-2.52a38.58 38.58 0 0 0 .8-4.61c.63-2.88 2.52-5.25 3.56-8a14.51 14.51 0 0 0-.09-10.34c-.7-1.74-1.73-3.3-2.43-5-1.07-2.63-1.35-5.6-2.65-8.12a9.6 9.6 0 0 0-11.53-4.74c-2 .76-3.76 2.22-5.8 2.88-2.74.88-5.66.22-8.5-.18s-6-.43-8.24 1.43c-2.62 2.15-3.34 6.18-5.8 8.53-1 1-2.32 1.62-3.4 2.53a4.7 4.7 0 0 0-1.91 3.76c.17 1.92 2 3.66 1.35 5.44a4.22 4.22 0 0 1-1 1.35 19.38 19.38 0 0 0-4.48 7.63c5 1.54 10.32-3.92 14.2-6.5 2.54-1.7 8.7-3.35 10.74-.07z" fill="#7c5c5c"/><path d="M1087.4 620.36l-2.3 1.9c-2-3.4-10.38-10.15-10.38-10.15l.36-.35 1.2-.3z" class="B"/><path d="M1089.63 616.93l-1.68 3.84c-.86 1.78-1.8 3.4-1.83 2.1-.1-2.6-10.83-11.3-10.83-11.3l1.45-1.42 1.7-1.64z" class="G"/><path d="M1090 603.23l1.22 20.65c-2.88-4.47-10.77-15.93-15.84-15.56l12.3-14.16a16.5 16.5 0 0 0 1.41-1.81l.9 10.88z" class="B"/><path d="M1089.63 616.93l-1.68 3.84c-3.23-4.42-7.66-9.65-11.2-10.63l1.7-1.64z" class="B"/><path d="M1098.9 542.04l3.33 2.6s5.56.1 6.1 4.72 5.65 6.76 5.65 6.76 3.8 3.8 3.8 5.56 2.87 4.9 2.87 5.18 2.78 5.92 2.4 6.94 3 5.46 1.94 7.13a42.87 42.87 0 0 0-2.22 4.63s-4.35 8.33-6.57 9.9-12.4 14.82-12.4 14.82-10.93 12.58-10.93 16.47c0 0-10.64-17.77-16.94-17.3l12.3-14.16s2.13-2.32 2.23-3.7 5.92-7.78 8.7-8.06c0 0 .46-3.8-.74-3.9s-2.22-3-2.22-3-8.15-9.63-8.24-15.74 10.92-18.84 10.92-18.84z" class="E"/><path d="M1103.8 550.83s-7.78 5.74-6.1 7.6 6.1-7.6 6.1-7.6zm.37 23.7s14.44-4.63 15.92 0zm-89.42 245.93s-7.78 5.1-11.67 4.35a14 14 0 0 0-7.87 1.3 23.36 23.36 0 0 1-9.81 6.39c-6.3 2.13-15.1 1.3-20.1-.37-2.36-.8-2.55-1.8-1.4-3.06 5.43 1.08 17.58 3.23 20.85 1.67a86.78 86.78 0 0 0 10.37-6.48s8-1.1 9.07-1.1c.8 0 6.94-2.54 10.4-4zm47.1 10.44c0 .3-.07.5-.07.5s-1.85 4.07-12.13 5.55-10.27-3.42-10.27-3.42l.1-1.33c3.25 1.24 10.35 2.6 22.37-1.3zm-59.55-281.18s0 21.1-1.8 23.2 1.8-23.2 1.8-23.2zm83.44 6.8l2.7 7.54s1.06-7.4-2.7-7.54z" class="B"/><path d="M1020.3 475.6c.68-1.73-1.1-3.44-1.33-5.3a3.41 3.41 0 0 0-.3 1.67c.12 1.4 1.16 2.72 1.43 4a2.28 2.28 0 0 0 .2-.37zm30.7 19.95c-.66-2.92-.46-6-1.14-8.93s-2.76-6-5.6-6c-1.22 0-2.65.44-3.53-.47-.54-.55-.64-1.42-1-2.1-2-3.28-8.2-1.6-10.73.07-3.78 2.5-9 7.78-13.84 6.58a19.59 19.59 0 0 0-.63 1.72c5 1.54 10.32-3.92 14.2-6.5 2.53-1.68 8.7-3.34 10.73-.06.4.67.5 1.54 1 2.1.88.9 2.3.44 3.53.46 2.84.05 4.92 3.06 5.6 6s.47 6.12 1.18 9.08a5 5 0 0 1 .24-1.95zm13.93-3.47c-.5 1.47-1.82 2.82-3.25 2.52s-2.12-1.92-3.18-2.94a4.36 4.36 0 0 0-5-.7 5.06 5.06 0 0 0-2.46 4.49 4.83 4.83 0 0 1 2.18-2.68 4.35 4.35 0 0 1 5 .69c1.06 1 1.8 2.65 3.2 2.94s2.74-1.05 3.24-2.52a11.81 11.81 0 0 0 .51-2.66 6.42 6.42 0 0 1-.23.86zm4.37-12.62c-1 2.74-2.93 5.1-3.56 8a20.59 20.59 0 0 0-.27 1.78c.64-2.88 2.5-5.24 3.55-8a13.89 13.89 0 0 0 .85-3.84 14 14 0 0 1-.57 2.06z" class="B"/><circle cx="935.51" cy="546.26" r=".23" fill="#e6e8ec"/><rect x="849.12" y="551.42" width="181.18" height="208.22" rx="6.61" class="F"/><rect x="849.12" y="551.42" width="181.18" height="208.22" rx="6.61" class="B H"/><rect x="858.36" y="562.04" width="162.7" height="186.98" rx="6.61" class="F"/><g class="D"><rect x="882.03" y="599.54" width="111.62" height="38.52" rx="6.03"/><path d="M886.13 652.15h103.43V660H886.13zm-17.58 16.6h142.32v7.86H868.55zm0 17.45h142.32v7.86H868.55zm0 17.46h142.32v7.86H868.55z"/></g><rect y="482.59" width="426.61" height="208.22" rx="6.61" class="F"/><rect y="482.59" width="426.61" height="208.22" rx="6.61" class="B H"/><rect x="21.76" y="493.21" width="383.08" height="186.98" rx="6.61" class="F"/><g class="D"><rect x="77.51" y="530.72" width="262.81" height="38.52" rx="6.03"/><path d="M87.15 583.32h243.53v7.86H87.15zm-41.4 16.58h335.1v7.86H45.75zm0 17.47h335.1v7.86H45.75zm0 17.46h335.1v7.86H45.75z"/></g><path d="M104.27 840.64l2-8.16a17 17 0 0 1 2.22-8.27v-1.2l.34-8.8a29.33 29.33 0 0 0-2-4.7c-1.48-2.83.5-12.92.5-12.92s6.43-14.07 5.35-23.2 13.62-39.83 13.62-39.83a39.48 39.48 0 0 0-.92-9 6.9 6.9 0 0 1-.1-1.87 1.77 1.77 0 0 1 0-.23v.07c.43-6 5.6-17 5.6-17l.2-21.4s-2.54-12.72 3-29.45c1.95-5.84 3.23-10.52 4.07-14.14l.27-1.18-17.78-3.52s6.83-24.38 11-28.53 7.83-17.57 7.83-17.57 2.74-17.3-.4-22.5-3.28-14-3.28-14-7.42-5.83-8.28-8.32-2.23-8.1-2.12-11 1.17-5.5.9-7.05 2.5-7.3 1.34-10.1a7.74 7.74 0 0 1-.4-2.69v-.08a37.42 37.42 0 0 1 .95-7.19 20.4 20.4 0 0 1 7.7-3.74l.2-.66.5-1.7a8.33 8.33 0 0 1 .76-.42l.05-.63.16-2.5-.96-5.68c-2-9.86 11.12-10.8 11.12-10.8a6.87 6.87 0 0 1 3.81-3.1c2.66-.82-.12 14.7-1.4 15.66-1 .7-4 5.5-5.45 7.85l-.24.4a5.4 5.4 0 0 1 .58.65l-.63 3.37-.1.5a14 14 0 0 1 1.95 3.63s-2.5 2.52-2.12 5.46a17.59 17.59 0 0 1-1 6.73c.14-.15 1.9-1.9 3.55-1.4s6.28 2.1 6.28 2.1 3.47.75 3.12 1.5 2.23 4.24 2.23 4.24l9.73-8.53a26.83 26.83 0 0 0 .31-.8 22.35 22.35 0 0 0 1-3.87 20.92 20.92 0 0 1-3-1.07 6.53 6.53 0 0 1-2.54-1.76c-.9-1.16-1-2.7-1.35-4.1-.64-2.76-2.14-5.26-3.2-7.9a25.29 25.29 0 0 1-1.34-14 9.32 9.32 0 0 1 1.6-4c1.62-2.05 4.43-2.8 6.52-4.4s3.5-4.13 5.9-5.3c2.18-1.06 4.77-.82 7.16-.34a38.26 38.26 0 0 1 13.05 5.31c1.34.87 2.8 1.87 4.4 1.64a6.07 6.07 0 0 0 3.3-2.23.74.74 0 0 1 0-.14l.1-.1a16.49 16.49 0 0 1 1.18 7.08c0 .37 0 .75-.08 1.12v.4a1.82 1.82 0 0 0 0 .33 1.65 1.65 0 0 0 .06.49 3.51 3.51 0 0 0 .83 1.31 7.15 7.15 0 0 1 .72 1.07c0-.13-.07-.26-.1-.4a5.58 5.58 0 0 1 .86 3 2.93 2.93 0 0 1-.79 2.09 9.29 9.29 0 0 1-1.58 1.18 17.95 17.95 0 0 1-9.28 18.29 19.15 19.15 0 0 0-.35.8 22.36 22.36 0 0 0-2.1 10.17c0 .25 0 .5.08.75s.23.27.33.4c0 0 15.5.75 19.28-2.42s8.9 8.43 8.9 8.43 5.52 1.3 6.67.26 7.64.14 7.64.14a14 14 0 0 1 9.82-3.17 28.69 28.69 0 0 1 7.27-3.68l.18-.06a7.84 7.84 0 0 1 3.51-.31s7.87-6 10.22-9.3 13.38-15.44 13.38-15.5l.07-.6.2-1.82a6.12 6.12 0 0 0 .94.12l.24-.63a34.33 34.33 0 0 1 2.45-5.08s.1-2.3-.56-2.9.63-9 .63-9 7.5-15.8 13.18-3.57c0 0 11.34 8.2 1.22 16.87 0 0-4 1.74-4.57 3.2-.4 1-1.83 3.62-2.8 5.4l-.43.8.1.1-.2 1.5-.08.6c1.8 1.1 3 2.2 2.67 3a17 17 0 0 0-1.27 4.11s-14.14 16.3-16.16 23.5c0 0-37.06 20.14-49 21.22l1.65 10.84a86.42 86.42 0 0 1 .14 8.79c-.25 2.3.94 12.8.94 12.8s1.47 15.46 3.14 17.68 1 11.44 1 11.44a77.91 77.91 0 0 0 1.88 13.16c1.52 5.9 0 13.1 0 13.1s5.5 14.07-8.6 4.13c0 0-7.08-.7-15.24-1.3v.8c0 1.06-.05 2.2-.08 3.4-.2 7.93-.57 18.85-1.25 27.1-1.2 14.6-6.76 43.33-6.76 43.33l-.56 14.52a19.24 19.24 0 0 1 .26 4.17 27 27 0 0 1-4.47 14.39l-1.5 9.65s-2.85 6.28-3.05 10.1a4.54 4.54 0 0 0 .08.93 7.42 7.42 0 0 1 .07 1.49c0 4.4-3.08 14.82-3.08 14.82s-.57 10.6-2.18 11.16c-1.38.48 1.58 6.2 2.46 7.83a1.63 1.63 0 0 0 .07-.3l.2.32a7.54 7.54 0 0 1 .39 2.71 3.87 3.87 0 0 1-1.91 3.66c-3.1 1.73-4.77 3.2-2.23 3.92a28.23 28.23 0 0 1 2.78.69l.15-.35a1.71 1.71 0 0 1 1 1.9 7.77 7.77 0 0 1-1.09 3.56 38.76 38.76 0 0 1-4.6 7.68l-1.22-.18a6.1 6.1 0 0 0 .66 1.33 5.08 5.08 0 0 0 1.74 1.67 5.56 5.56 0 0 0 2.14.82 6.17 6.17 0 0 1 4.42 2.37c1.5 2.1 2.4 4.94-.84 7.27l-11.5 3.48s-19.64 1.8-18.44-2.55 2-8.16 2-8.16a17.35 17.35 0 0 1 1.88-7.72 10.32 10.32 0 0 1 .74-1.12l-.7-.1s-1.14-9.75-3.02-11.64c-.42-.45-.5-.78-.4-1-.17-.53.33-.82 1-1 0 .12.1.25.13.38a9.65 9.65 0 0 1 1.9-.13s.83-5.05-1.16-7a1.9 1.9 0 0 1-.34-1.52 7.79 7.79 0 0 1 .29-2.06.75.75 0 0 0 .07.12c1.22-4.56 5-11.74 5-11.74s.33-4.6-.87-6.5 1.13-25.06 1.13-25.06-.05-11.24 1.58-16.4-1.3-11.45-1.3-11.45 0-.12.05-.33a.41.41 0 0 0 0-.09l.26-1.76v.1c.44-3 1.25-8.3 1.8-10.8.77-3.5.63-20.46.63-20.46l-2.6-7.3-5.57 12.26-6 16.4s-2.8 3.4-3 7v.53a8.32 8.32 0 0 1 0 1.11 9.92 9.92 0 0 1-1.88 5.85s-1.73 7.8-4 9.7-2.45 5.76-2.45 5.76-3.14 11.28-4.5 13.23c-1.13 1.64-1.37 6.27-1.4 7.7v.4s-.53 4.06-.65 7.48v1.2a.22.22 0 0 1 0-.08 11.59 11.59 0 0 0 .22 2.77v.17-.58a29.09 29.09 0 0 1 .55 7.12c-.1 4.1-.9 8.9-3.5 11.66-4.48 4.76-7.15 4-7.15 4s1.83 6.23 4.32 7.56a1.59 1.59 0 0 1 .27.18c0-.12 0-.24.07-.35a3 3 0 0 1 .66 2.32c.08 2.7-1.8 7-3.5 9a5 5 0 0 1-2.19 1.18 3.77 3.77 0 0 0 .39.26 7.85 7.85 0 0 0 .86.44 4.25 4.25 0 0 0 1.28.39 6.08 6.08 0 0 1 4.42 2.37c1.5 2.1 2.4 4.93-.84 7.26l-11.5 3.48s-19.7 1.74-18.5-2.6z" fill="url(#C)"/><path d="M178.62 850.77l11.15-3.5c3.13-2.34 2.27-5.17.82-7.28a5.84 5.84 0 0 0-4.27-2.35 5.22 5.22 0 0 1-2.08-.83 5 5 0 0 1-1.67-1.66 8.2 8.2 0 0 1-1.09-4.3s-11.94-4-15.38-.6a9 9 0 0 0-1.53 2.09 18 18 0 0 0-1.84 7.72s-.76 3.8-1.93 8.16 17.82 2.53 17.82 2.53zm-53.62-7.5l11.15-3.5c3.13-2.34 2.27-5.17.82-7.27a5.84 5.84 0 0 0-4.28-2.36 3.93 3.93 0 0 1-1.24-.38 7.86 7.86 0 0 1-.83-.45c-3-1.8-2.77-6-2.77-6s-11.94-4-15.38-.6a8.84 8.84 0 0 0-1.22 1.52 17.45 17.45 0 0 0-2.16 8.29s-.77 3.82-1.93 8.16 17.84 2.57 17.84 2.57z" fill="#2d293d"/><path d="M166.1 830.27a9 9 0 0 0-1.52 2.09l18 2.8a8.2 8.2 0 0 1-1.09-4.3s-11.9-4-15.4-.58zm-54.84-5.97l-.13 3.4c2.64 4.75 16.3 4.26 20.33 2.1a7.86 7.86 0 0 1-.83-.45c-3-1.8-2.77-6-2.77-6s-11.94-4-15.38-.6a8.84 8.84 0 0 0-1.22 1.56z" class="B"/><path d="M109.67 809.62a31.07 31.07 0 0 1 2 4.7l-.5 12.14c2.88 5.2 18.94 4.12 21.2 1.44s4.84-9.83 2.43-11.15-4.18-7.56-4.18-7.56 2.6.72 6.94-4 3.53-15.73 2.85-18.37.45-11.38.45-11.38.08-6.16 1.4-8.1 4.36-13.23 4.36-13.23.14-3.85 2.37-5.76 3.92-9.7 3.92-9.7a10.06 10.06 0 0 0 1.79-6.55c-.3-3.86 2.92-7.9 2.92-7.9l5.87-16.4 5.4-12.27 2.5 7.33s.12 16.95-.63 20.46-2 12.86-2 12.86 2.84 6.27 1.26 11.45-1.56 16.4-1.56 16.4-2.28 23.17-1.12 25.06.83 6.5.83 6.5-6.82 13.3-4.9 15.22 1.12 7 1.12 7-4.3-.17-2.53 1.75 2.72 11.6 2.72 11.6l18.5 2.87a39.17 39.17 0 0 0 4.46-7.69c2.68-5.6-.26-5.1-2.7-5.8s-.83-2.2 2.16-3.92 1.46-5.95 1.46-5.95-4.17-7.7-2.6-8.26 2.12-11.16 2.12-11.16 3.56-12.5 2.92-15.9 2.9-11.44 2.9-11.44l1.44-9.64a26.63 26.63 0 0 0 4.09-18.17l.58-14.92s5.44-28.7 6.66-43.33c.76-9.34 1.14-22.1 1.3-30.08l.14-7.44-66.17-9.48a54.61 54.61 0 0 1-1.59 9.82c-.8 3.63-2.06 8.3-4 14.15-5.42 16.73-3 29.45-3 29.45l-.2 21.4s-6.4 14.08-5.35 19.05a40.64 40.64 0 0 1 .88 9s-14.24 30.68-13.2 39.77-5.2 23.2-5.2 23.2-1.93 10.12-.5 12.95z" fill="#575988"/><path d="M150.74 730.96l-20.12-3.5s11 12.16 20.12 3.5z" opacity=".05"/><path d="M134.3 707.85s-1 7.12 3.3 10c-.04-.02-7.8-1.55-3.3-10zm2.12-22.72s16.37 14.57 22.56 13.66-22.56-13.66-22.56-13.66zm39.15 53.33s12.73 3.42 12.92 8.58-12.92-8.58-12.92-8.58z" class="B"/><path d="M170.26 802.46s18 4.08 12.78 6.2-13.77 3.63-13.77 3.63-5.86.1 1-9.82z" opacity=".05"/><path d="M186.57 812.46a3.6 3.6 0 0 0 1.76-2.56l.17.33s1.54 4.2-1.46 6l-1 .58-1.66-.38c-2.44-.75-.8-2.23 2.2-3.97zm-23.34-2.12c-.48-.48-.4-1.66 0-3.17a8.59 8.59 0 0 1 .86 4.5 3.5 3.5 0 0 0-.86-1.33zm5.74-76.4a20.92 20.92 0 0 1 1 5.71 21.81 21.81 0 0 0-1.26-3.94l.26-1.77zm-41.23-9.67a7.34 7.34 0 0 1-.11-1.69l.38 3.17-.27-1.48zm39.56 64.36a10.19 10.19 0 0 1-.32-3.43 11.57 11.57 0 0 1 .72 4.34 4.23 4.23 0 0 0-.4-.91zm-4.92 28.83a60.4 60.4 0 0 1 1.75 9.53l18.5 2.87a38.76 38.76 0 0 0 4.47-7.69l.58-1.33c1.1.55 1.5 1.73-.1 5.05a39.23 39.23 0 0 1-4.46 7.68l-18.55-2.85s-1-9.74-2.8-11.65c-.83-.95-.2-1.38.6-1.6zM188 790.8s-.56 10.6-2.12 11.16c-.7-1.8-1.17-3.47-.47-3.72 1.56-.56 2.13-11.16 2.13-11.16s3.56-12.5 2.92-15.9 2.9-11.43 2.9-11.43l1.45-9.65a26.63 26.63 0 0 0 4.09-18.17l.57-14.92s5.42-28.74 6.6-43.33c.75-9.34 1.13-22.1 1.3-30.08 0-1.44.06-2.72.08-3.8l.53.08s0 3-.14 7.43c-.17 8-.55 20.75-1.3 30.1-1.18 14.58-6.6 43.33-6.6 43.33l-.58 14.9a26.66 26.66 0 0 1-4.08 18.17l-1.46 9.65s-3.55 8-2.9 11.44-2.92 15.9-2.92 15.9zm-56.08 32.97a18 18 0 0 0 3.22-7.19c1.83 1.78-.6 8.35-2.75 10.9s-18.32 3.76-21.2-1.43l.1-2.93c4 4.28 18.48 3.2 20.62.65zm-22.72-18.3a31.07 31.07 0 0 1 2 4.7l-.1 2.15a33.59 33.59 0 0 0-1.42-3.14 9.27 9.27 0 0 1-.52-3.83zm22.37 3.32a30.07 30.07 0 0 1-1.38-3.71s2.6.7 6.93-4.05c3.16-3.47 3.6-10.22 3.33-14.66.68 2.65 1.5 13.6-2.85 18.37-2.86 3.12-4.95 3.9-6.03 4.05zm9.3-33.8a82.23 82.23 0 0 0-.66 9.11 13 13 0 0 0-.26-1.44c-.67-2.65.44-11.38.44-11.38s.1-6.16 1.4-8.1 4.36-13.23 4.36-13.23.15-3.84 2.38-5.76 3.92-9.7 3.92-9.7a10.12 10.12 0 0 0 1.79-6.55c-.3-3.86 2.92-7.9 2.92-7.9l5.87-16.4 5.4-12.27 2.5 7.34v2.34l-2-6-5.4 12.26-5.87 16.4s-3.23 4-2.92 7.9a10.06 10.06 0 0 1-1.79 6.55s-1.7 7.8-3.92 9.7-2.37 5.76-2.37 5.76-3.06 11.28-4.36 13.24-1.4 8.14-1.4 8.14z" opacity=".05"/><path d="M138.85 491.56l.94 5.66-.28 4.34 6.4.9.77-1.3 5.3-7.86c1.22-.95 3.94-16.48 1.36-15.66a6.75 6.75 0 0 0-3.7 3.1s-12.66.96-10.77 10.8z" class="J"/><path d="M139.5 501.56l6.4.9.77-1.3a5.67 5.67 0 0 0-7-1.44z" class="B"/><path d="M137.77 504.54l8.4 2.3.22-1.26.6-3.37a5.83 5.83 0 0 0-8.15-1.43l-.48 1.7z" fill="#dce6f2"/><path d="M275.3 497.46l8.84 5.2.9-1.68 2.7-5.4c.6-1.47 4.43-3.22 4.43-3.22 9.8-8.67-1.16-16.86-1.16-16.86-5.5-12.23-12.76 3.58-12.76 3.58s-1.25 8.43-.62 9 .54 2.9.54 2.9a34 34 0 0 0-2.38 5.08c-.3.83-.48 1.38-.48 1.38z" class="J"/><path d="M275.3 497.46l8.84 5.2.9-1.68c-1.24-1.1-5.62-5-7.1-4.84a10.73 10.73 0 0 1-2.14 0l-.48 1.32z" class="B"/><path d="M274.28 500.13l10 5.4.28-2.18.2-1.5s-5.68-5.26-7.42-5.14a9.44 9.44 0 0 1-2.66-.11l-.18 1.82z" fill="#dce6f2"/><path d="M162.02 529.8s44.07 6.7 35.9 3.7c-5.7-2.1-7.84-5.85-8.16-9.93a23.22 23.22 0 0 1 2-10.18 44.62 44.62 0 0 1 4.27-7.84s-33.12-19.9-27-2.73a27.14 27.14 0 0 1 1.61 8.09 22.8 22.8 0 0 1-1.18 8.08 24.2 24.2 0 0 1-7.44 10.81z" class="J"/><path d="M169.07 502.82a27.14 27.14 0 0 1 1.61 8.09c3.08 2.8 6.58 2.75 11.07 2.92 3.45.14 7.23 1.12 10-.44a44.62 44.62 0 0 1 4.27-7.84s-33.07-19.9-26.95-2.73z" class="B"/><circle cx="183.01" cy="496.73" r="18.31" class="J"/><path d="M162.02 529.8s44.07 6.7 35.9 3.7c-5.7-2.1-7.84-5.85-8.16-9.93-2.1-2.47-6.47-4.36-9.28-5.4a13.33 13.33 0 0 0-8-.44 11 11 0 0 0-3 1.25 24.2 24.2 0 0 1-7.46 10.81zm-24.25-25.26l8.4 2.3.22-1.26a7.47 7.47 0 0 0-8-3.09zm136.5-4.4l10 5.4.28-2.18a75.72 75.72 0 0 0-10.1-4.88zm-134.06 140.5c17 3.37 41.3 7.83 45.2 6.8 3.25-.85 13.5-.35 22.4.3l.14-7.44-66.17-9.48a54.61 54.61 0 0 1-1.59 9.82z" class="B"/><path d="M123.3 635.96s56.06 11.86 62.2 10.25 37.15 1.58 37.15 1.58c13.63 9.92 8.32-4.14 8.32-4.14s1.5-7.18 0-13.1a80 80 0 0 1-1.81-13.16s.67-9.22-.94-11.43-3-17.68-3-17.68-1.13-10.5-.9-12.8-.12-8.8-.12-8.8l-1.6-10.84c11.6-1.1 47.48-21.27 47.48-21.27 2-7.16 15.7-23.58 15.7-23.58a17.76 17.76 0 0 1 1.24-4.11c1-2.42-12.63-7.87-12.63-7.87s-10.8 12.2-13.05 15.5-9.9 9.32-9.9 9.32a7.51 7.51 0 0 0-3.4.31h-.18a27.47 27.47 0 0 0-7 3.69 13.4 13.4 0 0 0-9.52 3.17s-6.27-1.16-7.38-.13-6.46-.25-6.46-.25-5-11.58-8.6-8.4-18.67 2.44-18.67 2.44c-1.9-2.74-6.7-4.83-9.7-5.93a13.25 13.25 0 0 0-8-.44 10.39 10.39 0 0 0-3.23 1.41l-9.44 8.56s-2.5-3.48-2.15-4.24-3-1.5-3-1.5l-6.08-2.08c-1.67-.52-3.3 1.24-3.44 1.4a17.78 17.78 0 0 0 1-6.73c-.35-2.94 2.05-5.47 2.05-5.47-4.87-13.43-17.44-2.82-17.44-2.82s-1.67 7.17-.54 10-1.56 8.56-1.32 10.1-.77 4.13-.88 7.05 1.2 8.52 2 11 8 8.32 8 8.32.13 8.78 3.16 14 .37 22.5.37 22.5-3.6 13.4-7.6 17.57-10.67 28.58-10.67 28.58z" fill="#656691"/><path d="M209.45 537.94s1.9-5 3.44-5.4a35.43 35.43 0 0 0 4.54-1.83l-.92-1.93s-5.84 1.37-6.82 3-.24 6.17-.24 6.17zm31.35-10.04c.25 1.55 13.88 3.46 13.88 3.46l-6.65-7.2h-.17a27.47 27.47 0 0 0-7.06 3.75z" class="B"/><g fill="#575988"><circle cx="281.2" cy="508.32" r="1.23"/><circle cx="279.53" cy="510.72" r="1.23"/><circle cx="277.9" cy="512.93" r="1.23"/><circle cx="276.2" cy="515.33" r="1.23"/><circle cx="131.25" cy="509.62" r="1"/><circle cx="131.01" cy="511.88" r="1"/><circle cx="130.78" cy="514.14" r="1"/></g><path d="M207.77 579.6c.15-.17-36.2 42.27-62.14 15.94 0 0 42.3 7.4 62.14-15.94zm19.03 23.54s-20.77-.23-23.17 5.65l-.24 6.2a4 4 0 0 0 3.86.15c2.14-1.05 14.92-6.94 19.23-3.7z" class="B"/><path d="M226.42 603.12s-19.85-.22-22.15 5.4l-.23 5.92a3.8 3.8 0 0 0 3.69.14c2-1 14.27-6.6 18.4-3.53z" fill="#656691"/><path d="M217.22 557.66a67.4 67.4 0 0 1-8.57 13.49 54.07 54.07 0 0 1-13.08 11.68s21.2-22.37 21.65-25.17zm7.7-23.84s-4 14.8-13.15 19.54zm5.26 1.7c.1-.27 2.62 11.94-12.2 18.07 0 0 6.27-1.87 12.2-18.07zM140 522.03c.23 0-7.37 4.45-9.47 6.56.05 0 5.1-7.04 9.47-6.56z" class="B"/><path d="M187.32 513.5a3.93 3.93 0 0 1-1.53 2.42 3.77 3.77 0 0 1-1.74.31c-5.6.14-11.4.16-16.48-2.2a6.22 6.22 0 0 1-2.45-1.76c-.88-1.16-1-2.7-1.3-4.1-.62-2.76-2.07-5.25-3.08-7.9a26 26 0 0 1-1.27-14 9.37 9.37 0 0 1 1.55-4c1.56-2.05 4.3-2.8 6.3-4.4s3.38-4.13 5.72-5.3c2.1-1.06 4.6-.83 6.92-.34a36.32 36.32 0 0 1 12.7 5.33c1.3.87 2.7 1.86 4.25 1.63a5.92 5.92 0 0 0 3.26-2.3 17 17 0 0 1 1.06 8 3.45 3.45 0 0 0 0 1.2 3.65 3.65 0 0 0 .8 1.31c1.3 1.65 2.08 4.2.66 5.77-.62.68-1.55 1-2.15 1.73-1.08 1.24-.8 3.1-.85 4.75a2.5 2.5 0 0 1-.46 1.61 2.39 2.39 0 0 1-2.28.45 6.22 6.22 0 0 0-2.4-.32 4 4 0 0 0-2.15 1.52c-2.7 3.14-3.83 6.7-5.08 10.6z" fill="#2d293d"/><path d="M164.57 510.85a6.14 6.14 0 0 0 2.45 1.77c5.07 2.35 10.9 2.32 16.48 2.2a3.65 3.65 0 0 0 1.74-.32 3.88 3.88 0 0 0 1.53-2.41c1.23-3.9 2.37-7.47 5.08-10.65a4 4 0 0 1 2.15-1.53 6.42 6.42 0 0 1 2.4.32 2.36 2.36 0 0 0 2.28-.45 2.46 2.46 0 0 0 .46-1.6c0-1.65-.23-3.5.85-4.76.6-.7 1.53-1 2.15-1.72a3.62 3.62 0 0 0 .49-3.66c.92 1.6 1.27 3.6.07 4.9-.62.68-1.54 1-2.15 1.73-1.08 1.24-.8 3.1-.84 4.75a2.45 2.45 0 0 1-.47 1.61 2.38 2.38 0 0 1-2.28.45 6.17 6.17 0 0 0-2.39-.32 4 4 0 0 0-2.16 1.53c-2.7 3.17-3.84 6.74-5.08 10.64a2.89 2.89 0 0 1-3.26 2.74c-5.6.13-11.4.15-16.5-2.2a6.26 6.26 0 0 1-2.45-1.76 4.8 4.8 0 0 1-.73-1.51 1.84 1.84 0 0 0 .17.25zm36.63-25.3a2.47 2.47 0 0 1-.52-1 3.45 3.45 0 0 1 0-1.2 17.05 17.05 0 0 0-.6-6.66l.1-.1a16.87 16.87 0 0 1 1.07 8 5.43 5.43 0 0 0-.05.97z" class="B"/><path d="M190.15 524.73s-23 2.15-24.9-1.37m-19.17-9.8s-12.7-.47-15.68 4.18" class="B"/></svg>